# xmcd
#
# Track frame offsets: 
#        150
#        16697
#        27652
#        43281
#        58463
#        71081
#        82891
#        98672
#        114693
#        125706
#        136770
#        149331
#        167649
#        182321
#        197202
#        212487
#        231624
#        245641
#        268666
#        283444
#        298256
#        310918
#
# Disc length: 4367 seconds
#
# Revision: 1
# Processed by: cddbd v1.5.2PL0 Copyright (c) Steve Scherf et al.
# Submitted via: ExactAudioCopy v0.95b4
#
DISCID=5f110d16
DTITLE=Asleep At The Wheel - Comin' Right At Ya and Texas Gold
DYEAR=1972
DGENRE=Country
TTITLE0=Take Me Back To Tulsa
TTITLE1=Daddy's Advice
TTITLE2=Before You Stopped Loving Me
TTITLE3=Drivin' Nails In My Coffin
TTITLE4=I'll Never Get Out Of This World Alive
TTITLE5=Space Buggy
TTITLE6=Cherokee Boogle
TTITLE7=Hillbilly Nut
TTITLE8=Your Down Home Is Uptown
TTITLE9=I'm The Fool Who (Told You To Go)
TTITLE10=I've Been Everywhere
TTITLE11=The Son Shines Down On Me
TTITLE12=The Letter That Johnny Walker Read
TTITLE13=Fat Boy Rag
TTITLE14=Runnin' After Fools
TTITLE15=Let Me Go Home Whiskey
TTITLE16=Nothin' Takes The Place Of You
TTITLE17=Roll 'em Floyd  (interpolating Rebecca - Roll 'em Pete)
TTITLE18=Tonight The Bartender Is On The Wrong Side Of The Bar
TTITLE19=Bump Bounce Boogie
TTITLE20=Where No One Stands Alone
TTITLE21=Trouble In The Mind
EXTD=YEAR: 1972 ID3G: 2
EXTT0=
EXTT1=
EXTT2=
EXTT3=
EXTT4=
EXTT5=
EXTT6=
EXTT7=
EXTT8=
EXTT9=
EXTT10=
EXTT11=
EXTT12=
EXTT13=
EXTT14=
EXTT15=
EXTT16=
EXTT17=
EXTT18=
EXTT19=
EXTT20=
EXTT21=
PLAYORDER=
